# xmcd
#
# Track frame offsets:
#	182
#	15495
#	26007
#	41182
#	67682
#	88340
#	106220
#	127190
#	140670
#	156212
#	179150
#	205752
#	220995
#	240772
#
# Disc length: 3412
#
# Revision: 1
# Processed by: cddbd v1.5.1PL0 Copyright (c) Steve Scherf et al.
# Submitted via: CDex 1.51
# Normalized: r0:TDELIM( - )
#
DISCID=c60d520e
DTITLE=Various Artist - Jazz
DYEAR=1900
DGENRE=Jazz
TTITLE0=Louis Armstrong - Mack the knife
TTITLE1=Duke Ellington - Dancers in love
TTITLE2=Sarah Vaughan - The nearness of you
TTITLE3=Miles Davis - Ah leu cha
TTITLE4=Toots Thielemans - Bluesette
TTITLE5=Supersax and La Voices - The song is you
TTITLE6=Stan Getz - Izaura (yoy know I just shouldn't stay)
TTITLE7=Count Basie - Beaver junction
TTITLE8=Billie Holiday - Violets for your furs
TTITLE9=Dave Bruneck - Lover
TTITLE10=JJ Johnson - Cry me river
TTITLE11=Duke Ellington - Singin' in the rain
TTITLE12=Stephane Grappelli - Nightwind
TTITLE13=Gene Krupe - How high the moon
EXTD=
EXTT0=
EXTT1=
EXTT2=
EXTT3=
EXTT4=
EXTT5=
EXTT6=
EXTT7=
EXTT8=
EXTT9=
EXTT10=
EXTT11=
EXTT12=
EXTT13=
PLAYORDER=
